# xmcd CD database file
#
# Track frame offsets:
#	200
#	14972
#	31380
#	47965
#	67127
#	90977
#	105317
#	134722
#	144082
#	156710
#	175745
#	194517
#
# Disc length: 2802 seconds
#
# Revision: 2
# Processed by: cddbd v1.5PL3 Copyright (c) Steve Scherf et al.
# Submitted via: CDex 1.51
#
DISCID=b00af00c
DTITLE=The Chris Cain Band - Can't Buy A Break
DYEAR=1992
DGENRE=Blues
TTITLE0=Hey, Sweet Baby
TTITLE1=Place in this World
TTITLE2=Strange Things
TTITLE3=My Baby Left this Morning
TTITLE4=Deep Freeze
TTITLE5=What Goes On?
TTITLE6=Weary Traveller
TTITLE7=Can't Buy a Break
TTITLE8=Endless Highway
TTITLE9=Gin 'n' Soda
TTITLE10=Material Girl Blues
TTITLE11=My Life is Getting Sweeter
EXTD=YEAR: 1992
EXTT0=
EXTT1=
EXTT2=
EXTT3=
EXTT4=
EXTT5=
EXTT6=
EXTT7=
EXTT8=
EXTT9=
EXTT10=
EXTT11=
PLAYORDER=
